# xmcd CD database file
#
# Track frame offsets:
#	150
#	45513
#	74417
#	107673
#	142484
#	174802
#	218964
#
# Disc length: 3352 seconds
#
# Revision: 3
# Processed by: cddbd v1.5.2PL0 Copyright (c) Steve Scherf et al.
# Submitted via: CDex 1.81
#
DISCID=670d1607
DTITLE=David Matthews Selected - Jazz With Strings [Disc. 1]
DYEAR=2011
DGENRE=Jazz
TTITLE0=Morzalt: Piano Concerto No.21 in C major, K.467(2nd Mov.) - Cetrak Park Kids with Central Park Strings
TTITLE1=When You Wish Upon A Star - David Matthews Trio with Manhattan Strings
TTITLE2=Hallo Goodbye - Cetrak Park Kids with Central Park Strings
TTITLE3=Tenderly - Manhattan Jazz Quintet with Century Orchestra Osaka
TTITLE4=The Night Sky Suite - David Matthews Trio with Manhattan Strings
TTITLE5=Mozart: Symphony N.25 in C minor, K.183(1st Mov.) - Cetrak Park Kids with Central Park Strings
TTITLE6=Over The Rainbow - David Matthews Trio with Manhattan Strings
EXTD=YEAR: 2011
EXTT0=
EXTT1=
EXTT2=
EXTT3=
EXTT4=
EXTT5=
EXTT6=
PLAYORDER=
